<?xml version="1.0" standalone="no"?>
<!DOCTYPE svg PUBLIC "-//W3C//DTD SVG 20010904//EN"
 "http://www.w3.org/TR/2001/REC-SVG-20010904/DTD/svg10.dtd">
<svg version="1.0" xmlns="http://www.w3.org/2000/svg"
 width="400.000000pt" height="400.000000pt" viewBox="0 0 400.000000 400.000000"
 preserveAspectRatio="xMidYMid meet">
<metadata>
Created by potrace 1.11, written by Peter Selinger 2001-2013
</metadata>
<g transform="translate(0.000000,400.000000) scale(0.100000,-0.100000)"
fill="#000000" stroke="none">
<path d="M0 2000 l0 -2000 2000 0 2000 0 0 2000 0 2000 -2000 0 -2000 0 0
-2000z m2412 1088 c9 -35 37 -135 63 -223 26 -88 57 -198 70 -245 13 -47 31
-109 39 -137 28 -93 46 -158 46 -167 0 -17 -80 3 -243 62 -108 38 -170 56
-172 48 -2 -6 -9 -36 -16 -66 -6 -30 -29 -92 -51 -138 -42 -88 -145 -235 -159
-226 -20 12 -99 125 -136 194 -38 73 -83 196 -83 230 0 16 -4 16 -57 -1 -220
-67 -265 -80 -269 -76 -4 3 30 179 116 602 11 55 25 124 31 153 l10 52 398 0
397 0 16 -62z m-911 -1621 c62 -42 78 -116 36 -178 -66 -98 -227 -52 -227 64
0 66 10 86 54 112 51 31 93 32 137 2z m1250 8 c85 -44 91 -165 10 -221 -29
-21 -105 -20 -137 1 -31 20 -64 73 -64 102 0 39 31 90 69 112 43 25 81 27 122
6z"/>
<path d="M1780 3050 c0 -5 20 -15 45 -21 53 -13 59 -13 63 -1 3 9 -62 32 -92
32 -9 0 -16 -4 -16 -10z"/>
<path d="M2106 3046 c-37 -12 -62 -36 -37 -36 31 0 101 26 101 37 0 15 -11 15
-64 -1z"/>
</g>
</svg>
